<svg width="30" height="30" viewBox="0 0 30 30" fill="none" xmlns="http://www.w3.org/2000/svg">
<rect x="1.5" y="1.5" width="27" height="27" fill="#FEC63E" stroke="black" stroke-width="3"/>
<path d="M9.89665 20.676C10.3526 20.676 10.7426 20.58 11.0666 20.388C11.4026 20.196 11.6606 19.956 11.8406 19.668C12.0326 19.38 12.1826 19.014 12.2906 18.57C12.4466 17.862 12.5246 16.968 12.5246 15.888C12.5246 14.808 12.3386 13.986 11.9666 13.422C11.5946 12.858 11.0726 12.576 10.4006 12.576C9.72865 12.576 9.11065 12.864 8.54665 13.44C7.99465 14.004 7.71865 14.526 7.71865 15.006L7.75465 20.01C8.33065 20.454 9.04465 20.676 9.89665 20.676ZM7.73665 7.212L7.71865 11.064C7.71865 12.288 7.68865 13.158 7.62865 13.674H7.79065C8.11465 13.146 8.56465 12.738 9.14065 12.45C9.71665 12.162 10.3346 12.018 10.9946 12.018C11.9906 12.018 12.8246 12.366 13.4966 13.062C14.1686 13.746 14.5046 14.838 14.5046 16.338C14.5046 17.826 14.1026 19.014 13.2986 19.902C12.4946 20.778 11.3486 21.216 9.86065 21.216C9.52465 21.216 9.13465 21.162 8.69065 21.054C8.25865 20.946 7.90465 20.802 7.62865 20.622L5.97265 21.198V8.076L4.38865 8.004L4.37065 7.59L7.73665 7.212ZM21.3728 12.216H24.9008V12.63L23.5688 12.972L20.1308 15.924L24.1268 20.442L25.3328 20.568V21H21.0668V20.568L22.0748 20.478L18.7268 16.536V20.478L19.8428 20.568V21H15.7928V20.568L16.9628 20.478V8.076L15.3788 8.004L15.3608 7.59L18.7268 7.212V16.32L22.5428 12.972L21.3728 12.63V12.216Z" fill="black"/>
</svg>
